<svg width="32" height="32" viewBox="0 0 32 32" fill="none" xmlns="http://www.w3.org/2000/svg">
<circle cx="16" cy="16" r="16" fill="#EDEFF5"/>
<g clip-path="url(#clip0_754_5283)">
<mask id="mask0_754_5283" style="mask-type:alpha" maskUnits="userSpaceOnUse" x="0" y="0" width="32" height="32">
<circle cx="16" cy="16" r="16" fill="#E9F1FF"/>
</mask>
<g mask="url(#mask0_754_5283)">
<path d="M15.9993 17C19.221 17 21.8327 14.3884 21.8327 11.1667C21.8327 7.94505 19.221 5.33337 15.9993 5.33337C12.7777 5.33337 10.166 7.94505 10.166 11.1667C10.166 14.3884 12.7777 17 15.9993 17Z" fill="#8F95B2"/>
<path d="M15.9997 19.5C12.9066 19.5035 9.94115 20.7338 7.75399 22.921C5.56683 25.1081 4.33654 28.0736 4.33301 31.1667C4.33301 31.3877 4.42081 31.5996 4.57709 31.7559C4.73337 31.9122 4.94533 32 5.16634 32H26.833C27.054 32 27.266 31.9122 27.4223 31.7559C27.5785 31.5996 27.6663 31.3877 27.6663 31.1667C27.6628 28.0736 26.4325 25.1081 24.2454 22.921C22.0582 20.7338 19.0928 19.5035 15.9997 19.5Z" fill="#8F95B2"/>
</g>
</g>
<defs>
<clipPath id="clip0_754_5283">
<rect width="26.6667" height="26.6667" fill="white" transform="translate(2.66699 5.33337)"/>
</clipPath>
</defs>
</svg>
