<svg width="182" height="24" viewBox="0 0 182 24" fill="none" xmlns="http://www.w3.org/2000/svg">
<path fill-rule="evenodd" clip-rule="evenodd" d="M8.50624 0H0V15.1179H4.32765V4.32765H8.51586C13.2619 4.32765 15.7286 7.47722 15.7286 11.5404C15.7286 15.4545 13.0647 18.7532 8.51586 18.7532H7.99173V23.0808H8.50624C15.719 23.0808 20.7631 18.5079 20.7631 11.5404C20.7631 4.57289 15.743 0 8.50624 0ZM163.557 20.9507V23.1001L168 23.0856V0.00481802H163.543V8.52068C162.941 7.72188 162.162 7.07434 161.266 6.62945C160.37 6.18456 159.383 5.95457 158.383 5.95775C154.128 5.95775 150.973 9.28523 150.973 14.7525C150.973 20.3304 154.162 23.5136 158.383 23.5136C159.385 23.5153 160.374 23.2847 161.272 22.84C162.169 22.3954 162.952 21.7486 163.557 20.9507ZM163.557 11.776V17.6953C163.111 18.2824 162.535 18.7582 161.875 19.0853C161.214 19.4123 160.486 19.5817 159.749 19.5802C157.258 19.5802 155.527 17.6424 155.527 14.7333C155.527 11.8241 157.258 9.85263 159.749 9.85263C160.489 9.85857 161.218 10.0352 161.878 10.3688C162.539 10.7024 163.113 11.184 163.557 11.776ZM77.0031 0.0192208V23.1H81.3981V0.0192208H77.0031ZM38.2952 17.4741L36.3718 20.4698C38.1365 22.0518 40.9398 22.9943 43.8538 22.9943C48.47 22.9943 51.0666 20.7391 51.0666 17.777C51.0666 13.6846 47.2232 12.9184 44.3257 12.3409C42.5727 11.9914 41.1659 11.711 41.1659 10.8047C41.1659 9.8959 42.2045 9.18905 43.7961 9.18905C45.6272 9.16177 47.3993 9.8362 48.7489 11.074L50.5184 8.1456C48.5851 6.67476 46.2155 5.89277 43.7865 5.92408C39.3867 5.92408 36.9296 8.3139 36.9296 11.0403C36.9296 14.9385 40.5892 15.655 43.4671 16.2186C45.332 16.5837 46.8687 16.8846 46.8687 17.9453C46.8687 18.9551 45.9888 19.6956 44.0654 19.6956C41.9516 19.602 39.926 18.8221 38.2952 17.4741ZM0 16.5076H4.31804V18.7676H6.60207V23.0952H0V16.5076ZM55.9612 14.4399C55.9612 9.45832 59.6638 5.92407 64.8233 5.92407C68.2518 5.92407 70.329 7.36662 71.435 8.85245L68.5499 11.4779C68.1556 10.9123 67.6251 10.4554 67.0073 10.1495C66.3895 9.84351 65.7044 9.69841 65.0157 9.72759C62.3517 9.72759 60.4812 11.6125 60.4812 14.4399C60.4812 17.2673 62.3517 19.1907 65.0157 19.1907C65.7021 19.205 66.3819 19.0533 66.9972 18.7486C67.6125 18.4439 68.1452 17.9951 68.5499 17.4404L71.435 20.0322C70.329 21.5469 68.2518 22.9943 64.8233 22.9943C59.6638 22.9943 55.9612 19.46 55.9612 14.4399ZM87.3806 14.4832C87.3566 9.87188 90.6648 5.94814 96.1706 5.9241C101.676 5.90006 105.052 9.77091 105.071 14.4015C105.09 19.0321 101.787 22.9703 96.2475 22.9943C90.7081 23.0183 87.3999 19.1283 87.3806 14.4832ZM100.503 14.4207C100.503 11.8963 98.921 9.71801 96.1754 9.72763C93.4297 9.73725 91.9247 11.9347 91.9343 14.464C91.9439 16.9933 93.4826 19.2004 96.2139 19.1908C98.9451 19.1811 100.513 16.9837 100.503 14.4207ZM111.485 17.4741L109.561 20.4698C111.331 22.0518 114.144 22.9942 117.068 22.9942C121.708 22.9942 124.304 20.7391 124.304 17.777C124.304 13.6846 120.459 12.9184 117.56 12.3408C115.806 11.9914 114.399 11.711 114.399 10.8047C114.399 9.89588 115.437 9.18903 117.029 9.18903C118.847 9.17158 120.603 9.84533 121.943 11.074L123.708 8.14558C121.776 6.67308 119.405 5.8909 116.976 5.92405C112.581 5.92405 110.124 8.31388 110.124 11.0403C110.124 14.9384 113.782 15.655 116.658 16.2185C118.522 16.5837 120.058 16.8846 120.058 17.9453C120.058 18.9551 119.178 19.6956 117.255 19.6956C115.141 19.602 113.116 18.8221 111.485 17.4741ZM128.95 14.4399C128.95 9.72759 132.513 5.92407 137.605 5.92407C142.592 5.92407 145.982 9.5593 145.982 14.8823V15.844H133.552C133.831 17.8972 135.528 19.6139 138.36 19.6139C139.779 19.6139 141.755 19.008 142.827 17.9982L144.751 20.7583C143.092 22.2393 140.457 23.0135 137.86 23.0135C132.792 22.9943 128.95 19.662 128.95 14.4399ZM137.605 9.32368C136.588 9.2811 135.592 9.63113 134.826 10.3014C134.059 10.9717 133.578 11.911 133.484 12.9253H141.726C141.62 11.3769 140.514 9.32368 137.605 9.32368ZM25.9231 2.67833C25.9193 2.15616 26.0707 1.64463 26.3581 1.20867C26.6456 0.772704 27.056 0.431972 27.5375 0.229719C28.0189 0.0274655 28.5496 -0.0271886 29.0621 0.0726935C29.5746 0.172576 30.046 0.42249 30.4162 0.790715C30.7865 1.15894 31.039 1.62887 31.1417 2.14086C31.2444 2.65285 31.1926 3.1838 30.993 3.66634C30.7934 4.14887 30.455 4.56122 30.0206 4.85104C29.5862 5.14087 29.0755 5.2951 28.5533 5.29416C27.8602 5.28795 27.1969 5.01081 26.7054 4.52199C26.2139 4.03317 25.9331 3.37146 25.9231 2.67833ZM26.3741 7.21757C27.0548 7.53934 27.7993 7.70369 28.5523 7.69842C29.3218 7.69778 30.0807 7.51835 30.769 7.17429V23.1145H26.3741V7.21757ZM173.758 15.9999C173.264 16.74 173 17.61 173 18.5C173.014 19.6891 173.493 20.8257 174.333 21.6666C175.174 22.5075 176.311 22.9861 177.5 23C178.39 23 179.26 22.7361 180 22.2416C180.74 21.7471 181.317 21.0443 181.657 20.2221C181.998 19.3998 182.087 18.495 181.914 17.6221C181.74 16.7492 181.311 15.9474 180.682 15.318C180.053 14.6887 179.251 14.2601 178.378 14.0865C177.505 13.9128 176.6 14.002 175.778 14.3425C174.956 14.6831 174.253 15.2599 173.758 15.9999Z" fill="#0492C2"/>
</svg>
